HIERARCHY
ROOT Pelvis
{
	OFFSET 0.000000 0.000000 0.000000
	CHANNELS 6 Xposition Yposition Zposition Xrotation Yrotation Zrotation
	JOINT LeftUpLeg_virtual
	{
		OFFSET 0.000000 0.000000 0.000000
		CHANNELS 3 Xrotation Yrotation Zrotation
		JOINT LeftUpLeg
		{
			OFFSET 18.735201 -5.666702 -4.541200
			CHANNELS 3 Xrotation Yrotation Zrotation
			JOINT LeftLeg
			{
				OFFSET -0.021200 -31.938179 0.493100
				CHANNELS 3 Xrotation Yrotation Zrotation
				JOINT LeftFoot
				{
					OFFSET 0.021200 -31.938179 -4.336299
					CHANNELS 3 Xrotation Yrotation Zrotation
					JOINT LeftToeBase
					{
						OFFSET 0.943001 -26.722000 15.023500
						CHANNELS 3 Xrotation Yrotation Zrotation
						End Site
						{
							OFFSET 0 0 0
						}
					}
				}
			}
		}
	}
	JOINT RightUpLeg_virtual
	{
		OFFSET 0.000000 0.000000 0.000000
		CHANNELS 3 Xrotation Yrotation Zrotation
		JOINT RightUpLeg
		{
			OFFSET -18.735201 -5.666702 -4.541200
			CHANNELS 3 Xrotation Yrotation Zrotation
			JOINT RightLeg
			{
				OFFSET 0.018946 -31.938133 0.493100
				CHANNELS 3 Xrotation Yrotation Zrotation
				JOINT RightFoot
				{
					OFFSET -0.018946 -31.938126 -4.336299
					CHANNELS 3 Xrotation Yrotation Zrotation
					JOINT RightToeBase
					{
						OFFSET -0.943001 -26.722004 15.023500
						CHANNELS 3 Xrotation Yrotation Zrotation
						End Site
						{
							OFFSET 0 0 0
						}
					}
				}
			}
		}
	}
	JOINT Hips_virtual
	{
		OFFSET 0.000000 0.000000 0.000000
		CHANNELS 3 Xrotation Yrotation Zrotation
		JOINT Hips
		{
			OFFSET -0.000000 -0.000000 -0.000000
			CHANNELS 3 Xrotation Yrotation Zrotation
			JOINT Spine
			{
				OFFSET 0.000000 10.199997 -0.299500
				CHANNELS 3 Xrotation Yrotation Zrotation
				JOINT Spine1
				{
					OFFSET 0.000000 11.900002 -1.516600
					CHANNELS 3 Xrotation Yrotation Zrotation
					JOINT Spine2
					{
						OFFSET 0.000000 13.600006 -2.842500
						CHANNELS 3 Xrotation Yrotation Zrotation
						JOINT Neck_virtual
						{
							OFFSET 0.000000 0.000000 0.000000
							CHANNELS 3 Xrotation Yrotation Zrotation
							JOINT Neck
							{
								OFFSET 0.000000 9.624100 -2.890100
								CHANNELS 3 Xrotation Yrotation Zrotation
								JOINT Head
								{
									OFFSET 0.000000 14.068802 -1.351900
									CHANNELS 3 Xrotation Yrotation Zrotation
									End Site
									{
										OFFSET 0 0 0
									}
								}
							}
						}
						JOINT LeftShoulder_virtual
						{
							OFFSET 0.000000 0.000000 0.000000
							CHANNELS 3 Xrotation Yrotation Zrotation
							JOINT LeftShoulder
							{
								OFFSET 15.263000 10.923401 -0.547700
								CHANNELS 3 Xrotation Yrotation Zrotation
								JOINT LeftArm
								{
									OFFSET 25.438599 -2.830597 -13.032500
									CHANNELS 3 Xrotation Yrotation Zrotation
									JOINT LeftForeArm
									{
										OFFSET 29.960503 0.000000 0.000000
										CHANNELS 3 Xrotation Yrotation Zrotation
										JOINT LeftHand
										{
											OFFSET 27.849251 0.000000 0.000000
											CHANNELS 3 Xrotation Yrotation Zrotation
											End Site
											{
												OFFSET 0 0 0
											}
										}
									}
								}
							}
						}
						JOINT RightShoulder_virtual
						{
							OFFSET 0.000000 0.000000 0.000000
							CHANNELS 3 Xrotation Yrotation Zrotation
							JOINT RightShoulder
							{
								OFFSET -15.263000 10.923401 -0.547700
								CHANNELS 3 Xrotation Yrotation Zrotation
								JOINT RightArm
								{
									OFFSET -25.438599 -2.830597 -13.032500
									CHANNELS 3 Xrotation Yrotation Zrotation
									JOINT RightForeArm
									{
										OFFSET -29.960503 0.000000 0.000000
										CHANNELS 3 Xrotation Yrotation Zrotation
										JOINT RightHand
										{
											OFFSET -27.849251 0.000000 0.000000
											CHANNELS 3 Xrotation Yrotation Zrotation
											End Site
											{
												OFFSET 0 0 0
											}
										}
									}
								}
							}
						}
					}
				}
			}
		}
	}
}
MOTION
Frames: 9
Frame Time: 0.03333333
70.016563 92.685585 43.206188 0.000000 0.000000 0.000000 4.662931 68.508143 -4.755570 -30.609387 -9.590941 -0.977755 20.405151 0.727241 -8.519743 9.982672 -18.415962 7.270782 0.000000 0.000000 0.000000 4.662931 68.508143 -4.755570 2.882387 -13.861419 -1.122750 30.990501 -2.210769 -3.023521 0.331534 -12.348028 11.464397 0.000000 0.000000 0.000000 4.662931 68.508143 -4.755570 0.000000 0.000001 0.000000 1.481978 15.639827 -1.851752 0.302477 12.349563 -1.690999 0.000000 0.000000 0.000000 0.319025 12.258879 -2.268430 6.883357 -6.870908 -0.399093 0.000000 0.000000 0.000000 0.319025 12.258879 -2.268430 -2.027421 -8.616121 -14.640808 24.659170 -52.430468 -33.897846 0.000002 -67.460822 0.000000 0.000000 0.000000 0.000000 0.319025 12.258879 -2.268430 -8.395410 33.279851 21.038929 6.092965 31.507492 48.663442 0.000006 48.322417 -0.000002 0.000000 0.000000 0.000000 
69.627098 92.647858 43.115829 0.000000 0.000000 0.000000 4.332728 67.315927 -4.410770 -30.693504 -9.486539 -0.604209 20.742205 1.523987 -8.608026 9.786933 -18.300213 7.172061 0.000000 0.000000 0.000000 4.332728 67.315927 -4.410770 3.492144 -12.315570 -1.306032 30.196502 -2.766730 -2.903924 -1.103561 -15.156209 10.880692 0.000000 0.000000 0.000000 4.332728 67.315927 -4.410770 0.000000 0.000000 0.000000 1.489445 15.315886 -1.782535 0.343534 12.111562 -1.597175 0.000000 0.000000 0.000000 0.355242 12.030031 -2.142362 6.751916 -6.766926 -0.487901 0.000000 0.000000 0.000000 0.355242 12.030031 -2.142362 -1.967087 -8.442191 -14.580898 23.731685 -53.081689 -34.699328 -0.000026 -66.037356 -0.000023 0.000000 0.000000 0.000000 0.355242 12.030031 -2.142362 -8.428599 32.859050 21.486419 5.768018 31.090943 48.692029 -0.000012 48.134430 -0.000004 0.000000 0.000000 0.000000 
69.158356 92.588448 43.020626 0.000000 0.000000 0.000000 4.064182 66.032063 -4.149666 -30.876724 -9.345878 -0.118214 21.194207 2.374781 -8.743481 9.580808 -18.240440 7.050753 0.000000 0.000000 0.000000 4.064182 66.032063 -4.149666 5.022373 -11.297303 -1.250372 28.080759 -1.428242 -2.870926 -2.002961 -20.074626 10.095184 0.000000 0.000000 0.000000 4.064182 66.032063 -4.149666 0.000000 -0.000001 0.000000 1.465117 14.995598 -1.718772 0.349806 11.848929 -1.478820 0.000000 0.000000 0.000000 0.356715 11.776926 -1.992126 6.626006 -6.652812 -0.583991 0.000000 0.000000 0.000000 0.356715 11.776926 -1.992126 -1.896975 -8.276093 -14.474767 22.789505 -53.831610 -35.479339 0.000030 -64.514361 0.000048 0.000000 0.000000 0.000000 0.356715 11.776926 -1.992126 -8.483176 32.397800 22.014842 5.553990 30.650371 48.597800 -0.000009 48.025498 0.000009 0.000000 0.000000 0.000000 
68.680626 92.516998 42.914700 0.000000 0.000000 0.000000 3.846066 64.814097 -3.847445 -31.010937 -9.200311 0.260680 21.478030 3.268866 -8.848160 9.485986 -18.226080 6.918644 0.000000 0.000000 0.000000 3.846066 64.814097 -3.847445 6.554565 -11.189286 -1.198226 26.094463 0.341812 -3.020536 -3.514025 -25.317309 9.022379 0.000000 0.000000 0.000000 3.846066 64.814097 -3.847445 0.000000 -0.000002 0.000000 1.475339 14.640471 -1.756336 0.371863 11.541100 -1.378605 0.000000 0.000000 0.000000 0.372756 11.478284 -1.856315 6.496663 -6.533818 -0.673330 0.000000 0.000000 0.000000 0.372756 11.478284 -1.856315 -1.822196 -8.117081 -14.348530 21.935731 -54.672157 -36.106562 0.000012 -62.965069 0.000028 0.000000 0.000000 0.000000 0.372756 11.478284 -1.856315 -8.552619 31.896888 22.612287 5.447680 30.142516 48.410837 -0.000010 48.027623 0.000024 0.000000 0.000000 0.000000 
68.217453 92.423508 42.777714 0.000000 0.000000 0.000000 3.620965 63.695906 -3.348973 -31.034809 -9.291246 0.329388 21.490174 4.451627 -8.900560 9.538844 -18.207995 6.762314 0.000000 0.000000 0.000000 3.620965 63.695906 -3.348973 8.528890 -12.462263 -0.854152 23.968613 2.869915 -3.531912 -6.083247 -30.468388 7.257184 0.000000 0.000000 0.000000 3.620965 63.695906 -3.348973 0.000000 -0.000001 0.000000 1.525033 14.273090 -1.987942 0.384028 11.204906 -1.354483 0.000000 0.000000 0.000000 0.372954 11.147833 -1.802457 6.371138 -6.412561 -0.693579 0.000000 0.000000 0.000000 0.372954 11.147833 -1.802457 -1.753735 -7.966576 -14.248957 21.259317 -55.512960 -36.485559 0.000012 -61.536166 0.000023 0.000000 0.000000 0.000000 0.372954 11.147833 -1.802457 -8.616523 31.369379 23.230776 5.446733 29.579005 48.139976 -0.000016 48.198429 0.000012 0.000000 0.000000 0.000000 
67.736412 92.401566 42.700348 0.000000 0.000000 0.000000 3.510806 62.114280 -3.035201 -30.893898 -9.000215 0.774599 21.449111 5.482059 -8.989119 9.456814 -18.097585 6.582696 0.000000 0.000000 0.000000 3.510806 62.114280 -3.035201 9.177607 -13.660865 -0.185575 22.612475 1.323553 -4.521147 -8.197069 -30.849072 6.039716 0.000000 0.000000 0.000000 3.510806 62.114280 -3.035201 0.000000 0.000001 0.000000 1.516205 14.118501 -2.217373 0.373124 11.056581 -1.378680 0.000000 0.000000 0.000000 0.360282 11.001744 -1.801466 6.259899 -6.324403 -0.669001 0.000000 0.000000 0.000000 0.360282 11.001744 -1.801466 -1.707230 -7.830352 -14.234792 20.800334 -56.184446 -36.603633 -0.000031 -60.431267 -0.000036 0.000000 0.000000 0.000000 0.360282 11.001744 -1.801466 -8.647024 30.837785 23.797752 5.562965 29.024117 47.757468 0.000006 48.635284 -0.000008 0.000000 0.000000 0.000000 
67.278267 92.434479 42.646423 0.000000 0.000000 0.000000 3.231789 60.601687 -2.647621 -30.572237 -8.712650 1.251505 21.159702 5.523417 -9.031918 9.357634 -17.070314 6.238420 0.000000 0.000000 0.000000 3.231789 60.601687 -2.647621 10.362579 -14.599888 0.444093 20.333174 0.050466 -5.206831 -9.508508 -30.861820 5.344356 0.000000 0.000000 0.000000 3.231789 60.601687 -2.647621 0.000000 0.000001 0.000000 1.506035 13.981903 -2.327327 0.372516 10.926142 -1.394867 0.000000 0.000000 0.000000 0.354995 10.872894 -1.800115 6.214256 -6.231539 -0.683168 0.000000 0.000000 0.000000 0.354995 10.872894 -1.800115 -1.699053 -7.717794 -14.360524 20.530019 -56.483188 -36.545494 0.000015 -59.862838 0.000009 0.000000 0.000000 0.000000 0.354995 10.872894 -1.800115 -8.618935 30.326644 24.239578 5.823722 28.569635 47.207187 -0.000012 49.458779 0.000008 0.000000 0.000000 0.000000 
66.818031 92.341621 42.616295 0.000000 0.000000 0.000000 3.049774 59.119180 -2.404729 -30.836221 -8.306551 1.632349 21.908154 5.463605 -8.836544 8.741280 -16.201318 5.759252 0.000000 0.000000 0.000000 3.049774 59.119180 -2.404729 11.161773 -14.889614 0.812116 18.746742 -0.812643 -5.595730 -10.786448 -30.910909 5.151601 0.000000 0.000000 0.000000 3.049774 59.119180 -2.404729 0.000000 0.000001 0.000000 1.595587 13.666207 -2.324029 0.473699 10.558946 -1.338844 0.000000 0.000000 0.000000 0.448890 10.511827 -1.703654 5.760453 -6.022644 -0.867655 0.000000 0.000000 0.000000 0.448890 10.511827 -1.703654 -1.740805 -7.637743 -14.657101 20.361231 -56.245744 -36.459768 -0.000040 -59.980631 -0.000052 0.000000 0.000000 0.000000 0.448890 10.511827 -1.703654 -8.518742 29.854781 24.506811 6.262285 28.296237 46.432019 -0.000002 50.767833 0.000003 0.000000 0.000000 0.000000 
66.358879 92.192062 42.599319 0.000000 0.000000 0.000000 2.920933 57.632487 -2.224968 -31.323268 -7.865620 1.999979 23.067608 5.385713 -8.568113 7.920543 -15.395248 5.227507 0.000000 0.000000 0.000000 2.920933 57.632487 -2.224968 11.650613 -14.924421 0.942283 17.711802 -1.001448 -5.875394 -12.003143 -31.054647 5.293937 0.000000 0.000000 0.000000 2.920933 57.632487 -2.224968 0.000000 0.000005 0.000000 1.734521 13.288458 -2.287621 0.623734 10.098010 -1.258838 0.000000 0.000000 0.000000 0.590740 10.059009 -1.572306 5.126031 -5.773465 -1.125726 0.000000 0.000000 0.000000 0.590740 10.059009 -1.572306 -1.834201 -7.592383 -15.117382 20.191567 -55.417539 -36.489712 0.000003 -60.806387 -0.000001 0.000000 0.000000 0.000000 0.590740 10.059009 -1.572306 -8.348591 29.428317 24.590457 6.903008 28.239526 45.405216 0.000010 52.588628 0.000003 0.000000 0.000000 0.000000 
